<mxfile host="app.diagrams.net" modified="2024-04-04T08:41:16.323Z" agent="Mozilla/5.0 (Macintosh; Intel Mac OS X 10_15_7) AppleWebKit/537.36 (KHTML, like Gecko) Chrome/123.0.0.0 Safari/537.36" etag="r56NE5gxR46uNk29M496" version="24.0.1" type="github">
  <diagram name="Page-1" id="PFpEE0i0nkMwGWKnxEcj">
    <mxGraphModel dx="954" dy="492" grid="1" gridSize="10" guides="1" tooltips="1" connect="1" arrows="1" fold="1" page="1" pageScale="1" pageWidth="850" pageHeight="1100" math="0" shadow="0">
      <root>
        <mxCell id="0" />
        <mxCell id="1" parent="0" />
        <mxCell id="rAbO8_lItaT4dXeiiqGa-65" value="" style="rounded=0;whiteSpace=wrap;html=1;dashed=1;" vertex="1" parent="1">
          <mxGeometry x="295" y="160" width="70" height="160" as="geometry" />
        </mxCell>
        <mxCell id="rAbO8_lItaT4dXeiiqGa-64" value="" style="rounded=0;whiteSpace=wrap;html=1;dashed=1;" vertex="1" parent="1">
          <mxGeometry x="225" y="160" width="70" height="160" as="geometry" />
        </mxCell>
        <mxCell id="rAbO8_lItaT4dXeiiqGa-63" value="" style="rounded=0;whiteSpace=wrap;html=1;dashed=1;" vertex="1" parent="1">
          <mxGeometry x="155" y="160" width="70" height="160" as="geometry" />
        </mxCell>
        <mxCell id="rAbO8_lItaT4dXeiiqGa-59" value="" style="rounded=0;whiteSpace=wrap;html=1;dashed=1;" vertex="1" parent="1">
          <mxGeometry x="560" y="160" width="70" height="100" as="geometry" />
        </mxCell>
        <mxCell id="rAbO8_lItaT4dXeiiqGa-58" value="" style="rounded=0;whiteSpace=wrap;html=1;dashed=1;" vertex="1" parent="1">
          <mxGeometry x="489" y="160" width="70" height="100" as="geometry" />
        </mxCell>
        <mxCell id="rAbO8_lItaT4dXeiiqGa-57" value="" style="rounded=0;whiteSpace=wrap;html=1;dashed=1;" vertex="1" parent="1">
          <mxGeometry x="420" y="160" width="70" height="100" as="geometry" />
        </mxCell>
        <mxCell id="rAbO8_lItaT4dXeiiqGa-1" value="" style="rounded=0;whiteSpace=wrap;html=1;" vertex="1" parent="1">
          <mxGeometry x="160" y="390" width="200" height="80" as="geometry" />
        </mxCell>
        <mxCell id="rAbO8_lItaT4dXeiiqGa-2" value="" style="rounded=0;whiteSpace=wrap;html=1;" vertex="1" parent="1">
          <mxGeometry x="160" y="330" width="200" height="50" as="geometry" />
        </mxCell>
        <mxCell id="rAbO8_lItaT4dXeiiqGa-3" value="" style="rounded=0;whiteSpace=wrap;html=1;" vertex="1" parent="1">
          <mxGeometry x="160" y="270" width="60" height="50" as="geometry" />
        </mxCell>
        <mxCell id="rAbO8_lItaT4dXeiiqGa-4" value="" style="rounded=0;whiteSpace=wrap;html=1;" vertex="1" parent="1">
          <mxGeometry x="230" y="270" width="60" height="50" as="geometry" />
        </mxCell>
        <mxCell id="rAbO8_lItaT4dXeiiqGa-5" value="" style="rounded=0;whiteSpace=wrap;html=1;" vertex="1" parent="1">
          <mxGeometry x="300" y="270" width="60" height="50" as="geometry" />
        </mxCell>
        <mxCell id="rAbO8_lItaT4dXeiiqGa-9" value="" style="rounded=0;whiteSpace=wrap;html=1;" vertex="1" parent="1">
          <mxGeometry x="160" y="190" width="60" height="30" as="geometry" />
        </mxCell>
        <mxCell id="rAbO8_lItaT4dXeiiqGa-10" value="" style="rounded=0;whiteSpace=wrap;html=1;" vertex="1" parent="1">
          <mxGeometry x="230" y="190" width="60" height="30" as="geometry" />
        </mxCell>
        <mxCell id="rAbO8_lItaT4dXeiiqGa-11" value="" style="rounded=0;whiteSpace=wrap;html=1;" vertex="1" parent="1">
          <mxGeometry x="300" y="190" width="60" height="30" as="geometry" />
        </mxCell>
        <mxCell id="rAbO8_lItaT4dXeiiqGa-12" value="" style="rounded=0;whiteSpace=wrap;html=1;" vertex="1" parent="1">
          <mxGeometry x="160" y="230" width="60" height="30" as="geometry" />
        </mxCell>
        <mxCell id="rAbO8_lItaT4dXeiiqGa-13" value="" style="rounded=0;whiteSpace=wrap;html=1;" vertex="1" parent="1">
          <mxGeometry x="230" y="230" width="60" height="30" as="geometry" />
        </mxCell>
        <mxCell id="rAbO8_lItaT4dXeiiqGa-14" value="" style="rounded=0;whiteSpace=wrap;html=1;" vertex="1" parent="1">
          <mxGeometry x="300" y="230" width="60" height="30" as="geometry" />
        </mxCell>
        <mxCell id="rAbO8_lItaT4dXeiiqGa-15" value="" style="rounded=0;whiteSpace=wrap;html=1;" vertex="1" parent="1">
          <mxGeometry x="425" y="390" width="200" height="80" as="geometry" />
        </mxCell>
        <mxCell id="rAbO8_lItaT4dXeiiqGa-16" value="" style="rounded=0;whiteSpace=wrap;html=1;" vertex="1" parent="1">
          <mxGeometry x="425" y="330" width="200" height="50" as="geometry" />
        </mxCell>
        <mxCell id="rAbO8_lItaT4dXeiiqGa-20" value="" style="rounded=0;whiteSpace=wrap;html=1;" vertex="1" parent="1">
          <mxGeometry x="425" y="190" width="60" height="30" as="geometry" />
        </mxCell>
        <mxCell id="rAbO8_lItaT4dXeiiqGa-21" value="" style="rounded=0;whiteSpace=wrap;html=1;" vertex="1" parent="1">
          <mxGeometry x="495" y="190" width="60" height="30" as="geometry" />
        </mxCell>
        <mxCell id="rAbO8_lItaT4dXeiiqGa-22" value="" style="rounded=0;whiteSpace=wrap;html=1;" vertex="1" parent="1">
          <mxGeometry x="565" y="190" width="60" height="30" as="geometry" />
        </mxCell>
        <mxCell id="rAbO8_lItaT4dXeiiqGa-23" value="" style="rounded=0;whiteSpace=wrap;html=1;" vertex="1" parent="1">
          <mxGeometry x="425" y="230" width="60" height="30" as="geometry" />
        </mxCell>
        <mxCell id="rAbO8_lItaT4dXeiiqGa-24" value="" style="rounded=0;whiteSpace=wrap;html=1;" vertex="1" parent="1">
          <mxGeometry x="495" y="230" width="60" height="30" as="geometry" />
        </mxCell>
        <mxCell id="rAbO8_lItaT4dXeiiqGa-25" value="" style="rounded=0;whiteSpace=wrap;html=1;" vertex="1" parent="1">
          <mxGeometry x="565" y="230" width="60" height="30" as="geometry" />
        </mxCell>
        <mxCell id="rAbO8_lItaT4dXeiiqGa-26" value="" style="rounded=0;whiteSpace=wrap;html=1;" vertex="1" parent="1">
          <mxGeometry x="425" y="270" width="200" height="50" as="geometry" />
        </mxCell>
        <mxCell id="rAbO8_lItaT4dXeiiqGa-29" value="" style="sketch=0;outlineConnect=0;gradientColor=none;fontColor=#545B64;strokeColor=none;fillColor=#879196;dashed=0;verticalLabelPosition=bottom;verticalAlign=top;align=center;html=1;fontSize=12;fontStyle=0;aspect=fixed;shape=mxgraph.aws4.illustration_desktop;pointerEvents=1" vertex="1" parent="1">
          <mxGeometry x="180" y="413" width="54.94" height="50" as="geometry" />
        </mxCell>
        <mxCell id="rAbO8_lItaT4dXeiiqGa-30" value="" style="sketch=0;outlineConnect=0;fontColor=#232F3E;gradientColor=none;fillColor=#232F3D;strokeColor=none;dashed=0;verticalLabelPosition=bottom;verticalAlign=top;align=center;html=1;fontSize=12;fontStyle=0;aspect=fixed;pointerEvents=1;shape=mxgraph.aws4.traditional_server;" vertex="1" parent="1">
          <mxGeometry x="250" y="413" width="28.85" height="50" as="geometry" />
        </mxCell>
        <mxCell id="rAbO8_lItaT4dXeiiqGa-31" value="" style="ellipse;shape=cloud;whiteSpace=wrap;html=1;" vertex="1" parent="1">
          <mxGeometry x="290" y="413" width="50" height="50" as="geometry" />
        </mxCell>
        <mxCell id="rAbO8_lItaT4dXeiiqGa-32" value="" style="sketch=0;outlineConnect=0;gradientColor=none;fontColor=#545B64;strokeColor=none;fillColor=#879196;dashed=0;verticalLabelPosition=bottom;verticalAlign=top;align=center;html=1;fontSize=12;fontStyle=0;aspect=fixed;shape=mxgraph.aws4.illustration_desktop;pointerEvents=1" vertex="1" parent="1">
          <mxGeometry x="440" y="413" width="54.94" height="50" as="geometry" />
        </mxCell>
        <mxCell id="rAbO8_lItaT4dXeiiqGa-33" value="" style="sketch=0;outlineConnect=0;fontColor=#232F3E;gradientColor=none;fillColor=#232F3D;strokeColor=none;dashed=0;verticalLabelPosition=bottom;verticalAlign=top;align=center;html=1;fontSize=12;fontStyle=0;aspect=fixed;pointerEvents=1;shape=mxgraph.aws4.traditional_server;" vertex="1" parent="1">
          <mxGeometry x="510" y="413" width="28.85" height="50" as="geometry" />
        </mxCell>
        <mxCell id="rAbO8_lItaT4dXeiiqGa-34" value="" style="ellipse;shape=cloud;whiteSpace=wrap;html=1;" vertex="1" parent="1">
          <mxGeometry x="550" y="413" width="50" height="50" as="geometry" />
        </mxCell>
        <mxCell id="rAbO8_lItaT4dXeiiqGa-35" value="Infrastructure" style="text;html=1;align=center;verticalAlign=middle;whiteSpace=wrap;rounded=0;" vertex="1" parent="1">
          <mxGeometry x="220" y="383" width="60" height="30" as="geometry" />
        </mxCell>
        <mxCell id="rAbO8_lItaT4dXeiiqGa-36" value="Infrastructure" style="text;html=1;align=center;verticalAlign=middle;whiteSpace=wrap;rounded=0;" vertex="1" parent="1">
          <mxGeometry x="485" y="383" width="60" height="30" as="geometry" />
        </mxCell>
        <mxCell id="rAbO8_lItaT4dXeiiqGa-37" value="Hypervisor" style="text;html=1;align=center;verticalAlign=middle;whiteSpace=wrap;rounded=0;" vertex="1" parent="1">
          <mxGeometry x="220" y="340" width="60" height="30" as="geometry" />
        </mxCell>
        <mxCell id="rAbO8_lItaT4dXeiiqGa-38" value="Operating System" style="text;html=1;align=center;verticalAlign=middle;whiteSpace=wrap;rounded=0;" vertex="1" parent="1">
          <mxGeometry x="485" y="340" width="60" height="30" as="geometry" />
        </mxCell>
        <mxCell id="rAbO8_lItaT4dXeiiqGa-39" value="Container Engine" style="text;html=1;align=center;verticalAlign=middle;whiteSpace=wrap;rounded=0;" vertex="1" parent="1">
          <mxGeometry x="494" y="280" width="60" height="30" as="geometry" />
        </mxCell>
        <mxCell id="rAbO8_lItaT4dXeiiqGa-40" value="Guest&lt;div&gt;OS&lt;/div&gt;" style="text;html=1;align=center;verticalAlign=middle;whiteSpace=wrap;rounded=0;" vertex="1" parent="1">
          <mxGeometry x="160" y="280" width="60" height="30" as="geometry" />
        </mxCell>
        <mxCell id="rAbO8_lItaT4dXeiiqGa-41" value="Guest&lt;div&gt;OS&lt;/div&gt;" style="text;html=1;align=center;verticalAlign=middle;whiteSpace=wrap;rounded=0;" vertex="1" parent="1">
          <mxGeometry x="230" y="280" width="60" height="30" as="geometry" />
        </mxCell>
        <mxCell id="rAbO8_lItaT4dXeiiqGa-42" value="Guest&lt;div&gt;OS&lt;/div&gt;" style="text;html=1;align=center;verticalAlign=middle;whiteSpace=wrap;rounded=0;" vertex="1" parent="1">
          <mxGeometry x="300" y="280" width="60" height="30" as="geometry" />
        </mxCell>
        <mxCell id="rAbO8_lItaT4dXeiiqGa-43" value="Bins/Lib" style="text;html=1;align=center;verticalAlign=middle;whiteSpace=wrap;rounded=0;" vertex="1" parent="1">
          <mxGeometry x="425" y="230" width="60" height="30" as="geometry" />
        </mxCell>
        <mxCell id="rAbO8_lItaT4dXeiiqGa-44" value="Bins/Lib" style="text;html=1;align=center;verticalAlign=middle;whiteSpace=wrap;rounded=0;" vertex="1" parent="1">
          <mxGeometry x="160" y="230" width="60" height="30" as="geometry" />
        </mxCell>
        <mxCell id="rAbO8_lItaT4dXeiiqGa-45" value="Bins/Lib" style="text;html=1;align=center;verticalAlign=middle;whiteSpace=wrap;rounded=0;" vertex="1" parent="1">
          <mxGeometry x="230" y="230" width="60" height="30" as="geometry" />
        </mxCell>
        <mxCell id="rAbO8_lItaT4dXeiiqGa-46" value="Bins/Lib" style="text;html=1;align=center;verticalAlign=middle;whiteSpace=wrap;rounded=0;" vertex="1" parent="1">
          <mxGeometry x="300" y="230" width="60" height="30" as="geometry" />
        </mxCell>
        <mxCell id="rAbO8_lItaT4dXeiiqGa-47" value="Bins/Lib" style="text;html=1;align=center;verticalAlign=middle;whiteSpace=wrap;rounded=0;" vertex="1" parent="1">
          <mxGeometry x="495" y="230" width="60" height="30" as="geometry" />
        </mxCell>
        <mxCell id="rAbO8_lItaT4dXeiiqGa-48" value="Bins/Lib" style="text;html=1;align=center;verticalAlign=middle;whiteSpace=wrap;rounded=0;" vertex="1" parent="1">
          <mxGeometry x="565" y="230" width="60" height="30" as="geometry" />
        </mxCell>
        <mxCell id="rAbO8_lItaT4dXeiiqGa-49" value="App 1" style="text;html=1;align=center;verticalAlign=middle;whiteSpace=wrap;rounded=0;" vertex="1" parent="1">
          <mxGeometry x="160" y="190" width="60" height="30" as="geometry" />
        </mxCell>
        <mxCell id="rAbO8_lItaT4dXeiiqGa-50" value="App 2" style="text;html=1;align=center;verticalAlign=middle;whiteSpace=wrap;rounded=0;" vertex="1" parent="1">
          <mxGeometry x="230" y="190" width="60" height="30" as="geometry" />
        </mxCell>
        <mxCell id="rAbO8_lItaT4dXeiiqGa-51" value="App 3" style="text;html=1;align=center;verticalAlign=middle;whiteSpace=wrap;rounded=0;" vertex="1" parent="1">
          <mxGeometry x="300" y="190" width="60" height="30" as="geometry" />
        </mxCell>
        <mxCell id="rAbO8_lItaT4dXeiiqGa-52" value="App 1" style="text;html=1;align=center;verticalAlign=middle;whiteSpace=wrap;rounded=0;" vertex="1" parent="1">
          <mxGeometry x="425" y="190" width="60" height="30" as="geometry" />
        </mxCell>
        <mxCell id="rAbO8_lItaT4dXeiiqGa-53" value="App 2" style="text;html=1;align=center;verticalAlign=middle;whiteSpace=wrap;rounded=0;" vertex="1" parent="1">
          <mxGeometry x="495" y="190" width="60" height="30" as="geometry" />
        </mxCell>
        <mxCell id="rAbO8_lItaT4dXeiiqGa-54" value="App 3" style="text;html=1;align=center;verticalAlign=middle;whiteSpace=wrap;rounded=0;" vertex="1" parent="1">
          <mxGeometry x="565" y="190" width="60" height="30" as="geometry" />
        </mxCell>
        <mxCell id="rAbO8_lItaT4dXeiiqGa-55" value="Machine Virtualization" style="text;html=1;align=center;verticalAlign=middle;whiteSpace=wrap;rounded=0;" vertex="1" parent="1">
          <mxGeometry x="210" y="470" width="120" height="30" as="geometry" />
        </mxCell>
        <mxCell id="rAbO8_lItaT4dXeiiqGa-56" value="Containerization" style="text;html=1;align=center;verticalAlign=middle;whiteSpace=wrap;rounded=0;" vertex="1" parent="1">
          <mxGeometry x="490" y="470" width="60" height="30" as="geometry" />
        </mxCell>
        <mxCell id="rAbO8_lItaT4dXeiiqGa-60" value="Container 1" style="text;html=1;align=center;verticalAlign=middle;whiteSpace=wrap;rounded=0;" vertex="1" parent="1">
          <mxGeometry x="424" y="160" width="65" height="30" as="geometry" />
        </mxCell>
        <mxCell id="rAbO8_lItaT4dXeiiqGa-61" value="Container 2&lt;span style=&quot;color: rgba(0, 0, 0, 0); font-family: monospace; font-size: 0px; text-align: start; text-wrap: nowrap;&quot;&gt;%3CmxGraphModel%3E%3Croot%3E%3CmxCell%20id%3D%220%22%2F%3E%3CmxCell%20id%3D%221%22%20parent%3D%220%22%2F%3E%3CmxCell%20id%3D%222%22%20value%3D%22Container%201%22%20style%3D%22text%3Bhtml%3D1%3Balign%3Dcenter%3BverticalAlign%3Dmiddle%3BwhiteSpace%3Dwrap%3Brounded%3D0%3B%22%20vertex%3D%221%22%20parent%3D%221%22%3E%3CmxGeometry%20x%3D%22420%22%20y%3D%22160%22%20width%3D%2265%22%20height%3D%2230%22%20as%3D%22geometry%22%2F%3E%3C%2FmxCell%3E%3C%2Froot%3E%3C%2FmxGraphModel%3E&lt;/span&gt;" style="text;html=1;align=center;verticalAlign=middle;whiteSpace=wrap;rounded=0;" vertex="1" parent="1">
          <mxGeometry x="492.5" y="160" width="65" height="30" as="geometry" />
        </mxCell>
        <mxCell id="rAbO8_lItaT4dXeiiqGa-62" value="Container 3&lt;span style=&quot;color: rgba(0, 0, 0, 0); font-family: monospace; font-size: 0px; text-align: start; text-wrap: nowrap;&quot;&gt;%3CmxGraphModel%3E%3Croot%3E%3CmxCell%20id%3D%220%22%2F%3E%3CmxCell%20id%3D%221%22%20parent%3D%220%22%2F%3E%3CmxCell%20id%3D%222%22%20value%3D%22Container%201%22%20style%3D%22text%3Bhtml%3D1%3Balign%3Dcenter%3BverticalAlign%3Dmiddle%3BwhiteSpace%3Dwrap%3Brounded%3D0%3B%22%20vertex%3D%221%22%20parent%3D%221%22%3E%3CmxGeometry%20x%3D%22420%22%20y%3D%22160%22%20width%3D%2265%22%20height%3D%2230%22%20as%3D%22geometry%22%2F%3E%3C%2FmxCell%3E%3C%2Froot%3E%3C%2FmxGraphModel%3E&lt;/span&gt;" style="text;html=1;align=center;verticalAlign=middle;whiteSpace=wrap;rounded=0;" vertex="1" parent="1">
          <mxGeometry x="562.5" y="160" width="65" height="30" as="geometry" />
        </mxCell>
        <mxCell id="rAbO8_lItaT4dXeiiqGa-67" value="VM 1" style="text;html=1;align=center;verticalAlign=middle;whiteSpace=wrap;rounded=0;" vertex="1" parent="1">
          <mxGeometry x="160" y="160" width="60" height="30" as="geometry" />
        </mxCell>
        <mxCell id="rAbO8_lItaT4dXeiiqGa-68" value="VM 2" style="text;html=1;align=center;verticalAlign=middle;whiteSpace=wrap;rounded=0;" vertex="1" parent="1">
          <mxGeometry x="230" y="160" width="60" height="30" as="geometry" />
        </mxCell>
        <mxCell id="rAbO8_lItaT4dXeiiqGa-69" value="VM 3" style="text;html=1;align=center;verticalAlign=middle;whiteSpace=wrap;rounded=0;" vertex="1" parent="1">
          <mxGeometry x="300" y="160" width="60" height="30" as="geometry" />
        </mxCell>
      </root>
    </mxGraphModel>
  </diagram>
</mxfile>
